# xmcd CD database file
#
# Track frame offsets:
#	150
#	12927
#	24624
#	38106
#	50218
#	63565
#	74814
#	84916
#	99793
#	111025
#	123547
#	134129
#	145604
#	157773
#	172050
#	184197
#	196032
#	210374
#	221903
#	236783
#	248530
#	263532
#	275869
#	292891
#	307273
#
# Disc length: 4269 seconds
#
# Revision: 2
# Processed by: cddbd v1.4PL0 Copyright (c) Steve Scherf et al.
# Submitted via: CDex 1.40Beta6
#
DISCID=7710ab19
DTITLE=Sam and Dave - weat 'N' Soul (1965-1971) disc 2
DYEAR=1900
DGENRE=R&B
TTITLE0=I Thank You
TTITLE1=Wrap It Up
TTITLE2=Broke Down Piece of Man
TTITLE3=Hold It Baby
TTITLE4=Come On In
TTITLE5=This Is Your World
TTITLE6=You Don't Know What You Mean To Me
TTITLE7=Everybody Got To Believe In Somebody
TTITLE8=Can't You Find Another Way (Of Doing It)
TTITLE9=Ain't That A Lot Of Love
TTITLE10=Don't Turn Your Heater On
TTITLE11=Soul Sister, Brown Sugar
TTITLE12=Born Again
TTITLE13=You Left The Water Running
TTITLE14=Holdin' On
TTITLE15=I'm Not An Indian Giver
TTITLE16=One Part Love - Two Parts Pain
TTITLE17=Baby - Baby Don't Stop Now
TTITLE18=Standing In The Safety Zone
TTITLE19=Knock It Out the Park (with The Dixie Flyers)
TTITLE20=Don't Pull Your Love
TTITLE21=Jody Ryder Got Killed
TTITLE22=Starting All Over Again
TTITLE23=Stop - Sam Moore
TTITLE24=Shop Around - Sam Moore
EXTD=
EXTT0=
EXTT1=
EXTT2=
EXTT3=
EXTT4=
EXTT5=
EXTT6=
EXTT7=
EXTT8=
EXTT9=
EXTT10=
EXTT11=
EXTT12=
EXTT13=
EXTT14=
EXTT15=
EXTT16=
EXTT17=
EXTT18=
EXTT19=
EXTT20=
EXTT21=
EXTT22=
EXTT23=
EXTT24=
PLAYORDER=
